<?xml version="1.0" encoding="utf-8"?><svg viewBox="0 0 512 512" xmlns="http://www.w3.org/2000/svg" xmlns:xlink="http://www.w3.org/1999/xlink"><style>:root>svg{display:none}:root>svg:target{display:block}</style><svg viewBox="0 0 512 512" id="behance" xmlns="http://www.w3.org/2000/svg"><path d="M437 0H75C33.645 0 0 33.645 0 75v362c0 41.355 33.645 75 75 75h362c41.355 0 75-33.645 75-75V75c0-41.355-33.645-75-75-75zm45 437c0 24.813-20.188 45-45 45H75c-24.813 0-45-20.188-45-45V75c0-24.813 20.188-45 45-45h362c24.813 0 45 20.188 45 45zm0 0"/><path d="M241 211c0-33.086-26.914-60-60-60H91v210h90c33.086 0 60-26.914 60-60 0-17.906-7.895-33.996-20.379-45C233.105 244.996 241 228.906 241 211zm-30 90c0 16.543-13.457 30-30 30h-60v-60h60c16.543 0 30 13.457 30 30zm-90-60v-60h60c16.543 0 30 13.457 30 30s-13.457 30-30 30zm0 0M346 211c-41.355 0-75 33.645-75 75s33.645 75 75 75c26.691 0 51.582-14.363 64.957-37.488l-25.969-15.024C376.957 322.375 362.016 331 346 331c-19.559 0-36.238-12.54-42.43-30H421v-15c0-41.355-33.645-75-75-75zm-42.43 60c6.192-17.46 22.871-30 42.43-30s36.238 12.54 42.43 30zm0 0M286 151h120v30H286zm0 0"/></svg><svg viewBox="0 0 512 512" id="dribble" xmlns="http://www.w3.org/2000/svg"><path d="M256 0C115.04 0 0 115.05 0 256c0 140.96 115.05 256 256 256 140.96 0 256-115.05 256-256C512 115.04 396.95 0 256 0zm173.64 111.51c31.96 38.34 51.47 87.39 52.31 140.89-40.06-9.37-84.55-10-129.86-1.74a392.024 392.024 0 00-35.3 8.16 716.92 716.92 0 00-12.44-31.55 700.81 700.81 0 00-14.19-31.38c53.99-20.62 112.49-51.32 139.48-84.38zM256 30c58.82 0 112.45 22.59 152.7 59.54-15.7 21.41-60.44 52.58-132.22 79.46-25.06-46.66-55.11-89.54-89.83-128.1C208.51 33.83 231.82 30 256 30zm-99.05 22.9c35.41 37.93 65.87 80.29 90.96 126.05-74.68 24.17-150.29 34.03-212.46 27.66C50.59 138.96 96.14 82.67 156.95 52.9zM30 256c0-6.64.31-13.21.87-19.7 13.72 1.45 28.03 2.18 42.82 2.18 58.33 0 123.86-11.22 188.21-32.53 9.82 20.1 18.65 40.78 26.44 61.97-25.09 9.02-49.51 20.49-72.44 34.14-56.22 33.47-97.35 76.53-114.41 118.71C57.52 379.51 30 320.91 30 256zm226 226c-48.29 0-93.09-15.23-129.86-41.14 11.4-38.52 49.96-80.19 105.11-113.02 19.43-11.58 42.15-22.49 66.88-31.36 17.53 55.1 28.27 113.26 31.68 173.13C306.67 477.63 281.84 482 256 482zm103.07-24.9c-4.16-58.32-15.02-115.1-32.45-169.64 48.6-13.36 102.58-17.84 153.77-4.56-9.06 76.01-55.98 140.57-121.32 174.2z"/></svg><svg viewBox="0 0 512.001 512.001" id="instagram" xmlns="http://www.w3.org/2000/svg"><path d="M373.406 0H138.594C62.172 0 0 62.172 0 138.594V373.41C0 449.828 62.172 512 138.594 512H373.41C449.828 512 512 449.828 512 373.41V138.594C512 62.172 449.828 0 373.406 0zm108.578 373.41c0 59.867-48.707 108.574-108.578 108.574H138.594c-59.871 0-108.578-48.707-108.578-108.574V138.594c0-59.871 48.707-108.578 108.578-108.578H373.41c59.867 0 108.574 48.707 108.574 108.578zm0 0"/><path d="M256 116.004c-77.195 0-139.996 62.8-139.996 139.996S178.804 395.996 256 395.996 395.996 333.196 395.996 256 333.196 116.004 256 116.004zm0 249.976c-60.64 0-109.98-49.335-109.98-109.98 0-60.64 49.34-109.98 109.98-109.98 60.645 0 109.98 49.34 109.98 109.98 0 60.645-49.335 109.98-109.98 109.98zm0 0M399.344 66.285c-22.813 0-41.367 18.559-41.367 41.367 0 22.813 18.554 41.371 41.367 41.371s41.37-18.558 41.37-41.37-18.558-41.368-41.37-41.368zm0 52.719c-6.258 0-11.352-5.094-11.352-11.352 0-6.261 5.094-11.351 11.352-11.351 6.261 0 11.355 5.09 11.355 11.351 0 6.258-5.094 11.352-11.355 11.352zm0 0"/></svg><svg viewBox="0 0 512 512" id="linkedin" xmlns="http://www.w3.org/2000/svg"><path d="M160.008 423h-70V197h70zm6.984-298.004c0-22.629-18.36-40.996-40.976-40.996C103.312 84 85 102.367 85 124.996 85 147.633 103.313 166 126.016 166c22.617 0 40.976-18.367 40.976-41.004zM422 298.664C422 237.996 409.184 193 338.312 193c-34.054 0-56.914 17.031-66.246 34.742H272V197h-68v226h68V310.79c0-29.388 7.48-57.856 43.906-57.856 35.93 0 37.094 33.605 37.094 59.722V423h69zM512 452V60c0-33.086-26.914-60-60-60H60C26.914 0 0 26.914 0 60v392c0 33.086 26.914 60 60 60h392c33.086 0 60-26.914 60-60zM452 40c11.027 0 20 8.973 20 20v392c0 11.027-8.973 20-20 20H60c-11.027 0-20-8.973-20-20V60c0-11.027 8.973-20 20-20zm0 0"/></svg></svg>